<?xml version="1.0" encoding="utf-8"?>
<!-- Generator: Adobe Illustrator 23.0.2, SVG Export Plug-In . SVG Version: 6.00 Build 0)  -->
<svg version="1.1" id="Capa_1" xmlns="http://www.w3.org/2000/svg" xmlns:xlink="http://www.w3.org/1999/xlink" x="0px" y="0px"
	 viewBox="0 0 612 612" style="enable-background:new 0 0 612 612;" xml:space="preserve">
<style type="text/css">
	.st0{fill:#FFFFFF;}
</style>
<g>
	<g id="_x37__7_">
		<g>
			<path class="st0" d="M130.2,157.2c7.5,7.5,19.6,7.5,27,0c7.5-7.5,7.5-19.6,0-27l-40.6-40.6c-7.5-7.5-19.6-7.5-27,0
				c-7.5,7.5-7.5,19.6,0,27L130.2,157.2z M141.7,443.5l-40.2,40.2c-7.4,7.4-7.4,19.4,0,26.8c7.4,7.4,19.4,7.4,26.8,0l40.2-40.2
				c7.4-7.4,7.4-19.4,0-26.8S149.1,436.1,141.7,443.5z M306,95.6c10.6,0,19.1-8.6,19.1-19.1V19.1C325.1,8.6,316.6,0,306,0
				s-19.1,8.6-19.1,19.1v57.4C286.9,87.1,295.4,95.6,306,95.6z M490,148.8l40.2-40.2c7.4-7.4,7.4-19.4,0-26.8s-19.4-7.4-26.8,0
				L463.2,122c-7.4,7.4-7.4,19.4,0,26.8C470.6,156.2,482.6,156.2,490,148.8z M76.5,286.9H19.1C8.6,286.9,0,295.4,0,306
				s8.6,19.1,19.1,19.1h57.4c10.6,0,19.1-8.6,19.1-19.1S87.1,286.9,76.5,286.9z M306,516.4c-10.6,0-19.1,8.6-19.1,19.1v57.4
				c0,10.6,8.6,19.1,19.1,19.1s19.1-8.6,19.1-19.1v-57.4C325.1,524.9,316.6,516.4,306,516.4z M592.9,286.9h-57.4
				c-10.6,0-19.1,8.6-19.1,19.1s8.6,19.1,19.1,19.1h57.4c10.6,0,19.1-8.6,19.1-19.1S603.4,286.9,592.9,286.9z M481.8,454.8
				c-7.5-7.5-19.6-7.5-27,0c-7.5,7.5-7.5,19.6,0,27l40.6,40.6c7.5,7.5,19.6,7.5,27,0c7.5-7.5,7.5-19.6,0-27L481.8,454.8z M306,133.8
				c-95.1,0-172.2,77.1-172.2,172.2S210.9,478.2,306,478.2S478.2,401.1,478.2,306S401.1,133.8,306,133.8z"/>
		</g>
	</g>
</g>
</svg>
